<?xml version="1.0" encoding="utf-8"?>
<!-- Generator: Adobe Illustrator 23.0.1, SVG Export Plug-In . SVG Version: 6.00 Build 0)  -->
<svg version="1.1" id="Layer_1" xmlns="http://www.w3.org/2000/svg" xmlns:xlink="http://www.w3.org/1999/xlink" x="0px" y="0px"
	 viewBox="0 0 134 108" style="enable-background:new 0 0 134 108;" xml:space="preserve">
<style type="text/css">
	.st0{fill-rule:evenodd;clip-rule:evenodd;fill:#FFFFFF;}
</style>
<path class="st0" d="M129.2,3.7c-1.7-1.7-4.1-2.8-6.8-2.8H11.6c-2.6,0-5,1.1-6.8,2.8C3.1,5.4,2,7.8,2,10.5v60.4c0,2.6,1.1,5,2.8,6.8
	c1.7,1.7,4.1,2.8,6.8,2.8h19.8l0.5,25.4l18.8-25.4h71.8c2.6,0,5-1.1,6.8-2.8c1.7-1.7,2.8-4.1,2.8-6.8V10.5
	C132,7.8,130.9,5.4,129.2,3.7z M36.3,45.7c0,1.6-1.3,2.8-2.8,2.8h-9.8c-1.5,0-2.8-1.3-2.8-2.8v-9.9c0-1.6,1.3-2.8,2.8-2.8h9.8
	c1.5,0,2.8,1.3,2.8,2.8V45.7z M74.8,45.7c0,1.6-1.3,2.8-2.8,2.8h-9.8c-1.5,0-2.8-1.3-2.8-2.8v-9.9c0-1.6,1.3-2.8,2.8-2.8h9.8
	c1.5,0,2.8,1.3,2.8,2.8V45.7z M113.2,45.7c0,1.6-1.3,2.8-2.8,2.8h-9.8c-1.5,0-2.8-1.3-2.8-2.8v-9.9c0-1.6,1.3-2.8,2.8-2.8h9.8
	c1.5,0,2.8,1.3,2.8,2.8V45.7z"/>
</svg>
